<?xml version="1.0" encoding="utf-8"?>
<!-- Generator: Adobe Illustrator 24.1.2, SVG Export Plug-In . SVG Version: 6.00 Build 0)  -->
<svg version="1.1" id="Слой_1" xmlns="http://www.w3.org/2000/svg" xmlns:xlink="http://www.w3.org/1999/xlink" x="0px" y="0px"
	 viewBox="0 0 534.92 868.6" style="enable-background:new 0 0 534.92 868.6;" xml:space="preserve">
<style type="text/css">
	.st0{fill:url(#SVGID_1_);stroke:#000000;stroke-miterlimit:10;}
	.st1{fill:#52658E;}
	.st2{fill:#394668;}
	.st3{fill:#00AB6F;}
	.st4{fill:#1E7353;}
	.st5{fill:#00979F;}
	.st6{fill:#236E70;}
	.st7{fill:#A54943;}
	.st8{fill:#5F3232;}
	.st9{fill:#A4B34D;}
	.st10{fill:#68693F;}
	.st11{fill:#D17144;}
	.st12{fill:#95503C;}
	.st13{fill:#CC8245;}
	.st14{fill:#8D563A;}
	.st15{fill:#B67DB7;}
	.st16{fill:#7E5892;}
	.st17{fill:#00AD5E;}
	.st18{fill:#2C5C45;}
	.st19{fill:#B5BED1;}
	.st20{fill:#8B919C;}
	.st21{fill:#DD5699;}
	.st22{fill:#A0547B;}
	.st23{fill:#394668;stroke:#000000;stroke-miterlimit:10;}
	.st24{fill:url(#SVGID_2_);stroke:#000000;stroke-miterlimit:10;}
	.st25{fill:#5A72B6;}
	.st26{fill:#4C68B0;}
	.st27{fill:#416190;}
	.st28{fill:#5571A7;}
	.st29{fill:url(#SVGID_3_);}
	.st30{fill:#008BBB;}
	.st31{fill:#326E8C;}
	.st32{fill:url(#SVGID_4_);}
	.st33{fill:url(#SVGID_5_);}
	.st34{fill:url(#SVGID_6_);}
	.st35{fill:url(#SVGID_7_);}
	.st36{fill:url(#SVGID_8_);}
	.st37{fill:url(#SVGID_9_);}
	.st38{fill:url(#SVGID_10_);}
	.st39{fill:url(#SVGID_11_);}
	.st40{fill:url(#SVGID_12_);}
	.st41{fill:url(#SVGID_13_);}
	.st42{fill:url(#SVGID_14_);stroke:#000000;stroke-miterlimit:10;}
	.st43{fill:url(#SVGID_15_);}
</style>
<linearGradient id="SVGID_1_" gradientUnits="userSpaceOnUse" x1="-1156.4303" y1="-346.5739" x2="-1156.4303" y2="-665.5612">
	<stop  offset="0" style="stop-color:#969696"/>
	<stop  offset="1" style="stop-color:#394668"/>
</linearGradient>
<rect x="-1246.3" y="-665.56" class="st0" width="179.75" height="318.99"/>
<g>
	<path class="st1" d="M-810.18-657.79h-20.91c-13.27,0-24.03,10.76-24.03,24.03v41.82c0,13.27,10.76,24.03,24.03,24.03h20.91
		V-657.79z"/>
	<path class="st2" d="M-810.18-657.79h20.91c13.27,0,24.03,10.76,24.03,24.03v41.82c0,13.27-10.76,24.03-24.03,24.03h-20.91V-657.79
		z"/>
</g>
<path class="st3" d="M-598.56-657.08h-20.91c-13.27,0-24.03,10.76-24.03,24.03v41.82c0,13.27,10.76,24.03,24.03,24.03h20.91V-657.08
	z"/>
<path class="st4" d="M-598.56-657.08h20.91c13.27,0,24.03,10.76,24.03,24.03v41.82c0,13.27-10.76,24.03-24.03,24.03h-20.91V-657.08z
	"/>
<path class="st5" d="M-706.32-657.79h-20.91c-13.27,0-24.03,10.76-24.03,24.03v41.82c0,13.27,10.76,24.03,24.03,24.03h20.91V-657.79
	z"/>
<path class="st6" d="M-706.32-657.79h20.91c13.27,0,24.03,10.76,24.03,24.03v41.82c0,13.27-10.76,24.03-24.03,24.03h-20.91V-657.79z
	"/>
<path class="st7" d="M-490.81-657.08h-20.91c-13.27,0-24.03,10.76-24.03,24.03v41.82c0,13.27,10.76,24.03,24.03,24.03h20.91V-657.08
	z"/>
<path class="st8" d="M-490.81-657.08h20.91c13.27,0,24.03,10.76,24.03,24.03v41.82c0,13.27-10.76,24.03-24.03,24.03h-20.91V-657.08z
	"/>
<path class="st9" d="M-810.18-536.49h-20.91c-13.27,0-24.03,10.76-24.03,24.03v41.82c0,13.27,10.76,24.03,24.03,24.03h20.91V-536.49
	z"/>
<path class="st10" d="M-810.18-536.49h20.91c13.27,0,24.03,10.76,24.03,24.03v41.82c0,13.27-10.76,24.03-24.03,24.03h-20.91V-536.49
	z"/>
<path class="st11" d="M-706.32-536.49h-20.91c-13.27,0-24.03,10.76-24.03,24.03v41.82c0,13.27,10.76,24.03,24.03,24.03h20.91
	V-536.49z"/>
<path class="st12" d="M-706.32-536.49h20.91c13.27,0,24.03,10.76,24.03,24.03v41.82c0,13.27-10.76,24.03-24.03,24.03h-20.91V-536.49
	z"/>
<path class="st13" d="M-703.98-402.51h-20.91c-13.27,0-24.03,10.76-24.03,24.03v41.82c0,13.27,10.76,24.03,24.03,24.03h20.91
	V-402.51z"/>
<path class="st14" d="M-703.98-402.51h20.91c13.27,0,24.03,10.76,24.03,24.03v41.82c0,13.27-10.76,24.03-24.03,24.03h-20.91V-402.51
	z"/>
<path class="st15" d="M-810.18-402.73h-20.91c-13.27,0-24.03,10.76-24.03,24.03v41.82c0,13.27,10.76,24.03,24.03,24.03h20.91
	V-402.73z"/>
<path class="st16" d="M-810.18-402.73h20.91c13.27,0,24.03,10.76,24.03,24.03v41.82c0,13.27-10.76,24.03-24.03,24.03h-20.91V-402.73
	z"/>
<path class="st17" d="M-489.12-538.11h-20.91c-13.27,0-24.03,10.76-24.03,24.03v41.82c0,13.27,10.76,24.03,24.03,24.03h20.91
	V-538.11z"/>
<path class="st18" d="M-489.12-538.11h20.91c13.27,0,24.03,10.76,24.03,24.03v41.82c0,13.27-10.76,24.03-24.03,24.03h-20.91V-538.11
	z"/>
<path class="st19" d="M-598.56-536.4h-20.91c-13.27,0-24.03,10.76-24.03,24.03v41.82c0,13.27,10.76,24.03,24.03,24.03h20.91V-536.4z
	"/>
<path class="st20" d="M-598.56-536.4h20.91c13.27,0,24.03,10.76,24.03,24.03v41.82c0,13.27-10.76,24.03-24.03,24.03h-20.91V-536.4z"
	/>
<path class="st21" d="M-594.69-406.37h-20.91c-13.27,0-24.03,10.76-24.03,24.03v41.82c0,13.27,10.76,24.03,24.03,24.03h20.91
	V-406.37z"/>
<path class="st22" d="M-594.69-406.37h20.91c13.27,0,24.03,10.76,24.03,24.03v41.82c0,13.27-10.76,24.03-24.03,24.03h-20.91V-406.37
	z"/>
<rect x="-1495.51" y="-742.53" class="st23" width="179.75" height="318.99"/>
<linearGradient id="SVGID_2_" gradientUnits="userSpaceOnUse" x1="-968.5464" y1="-502.5664" x2="-968.5464" y2="-611.5609">
	<stop  offset="0" style="stop-color:#484848"/>
	<stop  offset="1" style="stop-color:#394668"/>
</linearGradient>
<rect x="-1023.04" y="-611.56" class="st24" width="108.99" height="108.99"/>
<g>
	<path class="st13" d="M-488.48-406.16h-20.91c-13.27,0-24.03,10.76-24.03,24.03v41.82c0,13.27,10.76,24.03,24.03,24.03h20.91
		V-406.16z"/>
	<path class="st14" d="M-488.48-406.16h20.91c13.27,0,24.03,10.76,24.03,24.03v41.82c0,6.64-2.69,12.64-7.04,16.99
		c-0.89,0.89-5.7,5.54-13.26,6.75c-1.51,0.24-2.8,0.29-3.73,0.29c-6.97,0-13.94,0-20.91,0V-406.16z"/>
	<path class="st14" d="M-472.58-404.62c1.59,1.59,1.55,4.21-0.09,5.85c-5.27,5.27-10.54,10.54-15.81,15.81
		c-1.56,1.56-3.12,3.12-4.69,4.69c-11.06,11.06-22.13,22.13-33.19,33.19c-2.64,2.64-7.04,0.89-7.02-2.78l0-0.12
		c0.01-1.09,0.45-2.15,1.23-2.95c12.65-12.93,25.43-25.88,38.35-38.85c1.77-1.78,3.55-3.56,5.32-5.33c3.25-3.25,6.5-6.5,9.74-9.74
		c1.64-1.64,4.26-1.67,5.85-0.09C-472.79-404.83-472.69-404.73-472.58-404.62z"/>
	<path class="st14" d="M-452.87-389.16c1.51,1.51,1.51,3.96,0,5.47c-13.98,13.98-27.96,27.96-41.94,41.94
		c-7.29,7.29-14.57,14.57-21.86,21.86c-1.28,1.28-3.29,1.52-4.81,0.53c-0.28-0.19-0.57-0.38-0.87-0.59
		c-0.01-0.01-0.03-0.02-0.04-0.03c-1.94-1.37-2.14-4.18-0.46-5.86l26.81-26.81l37.1-37.1c1.51-1.51,3.96-1.51,5.47,0L-452.87-389.16
		z"/>
	<path class="st13" d="M-445.03-357.62L-485-317.65c-1.68,1.68-4.39,1.68-6.07,0l0,0c-1.68-1.68-1.68-4.39,0-6.07l39.96-39.96
		c1.68-1.68,4.39-1.68,6.07,0v0C-443.36-362.01-443.36-359.29-445.03-357.62z"/>
	<path class="st14" d="M-508.24-398.87l-18.07,18.07c-1.59,1.59-4.16,1.59-5.75,0l0,0c-1.59-1.59-1.59-4.16,0-5.75l18.07-18.07
		c1.59-1.59,4.16-1.59,5.75,0l0,0C-506.65-403.03-506.65-400.46-508.24-398.87z"/>
	<path class="st13" d="M-472.74-398.71c-5.25,5.25-10.5,10.5-15.74,15.74c0-4.05,0-8.1,0-12.15c3.22-3.22,6.45-6.45,9.67-9.67
		c1.59-1.59,4.16-1.59,5.75,0l0.33,0.33C-471.15-402.87-471.15-400.3-472.74-398.71z"/>
	<path class="st13" d="M-488.48-360.12c11.6-11.6,23.19-23.19,34.79-34.79c1.68-1.68,4.39-1.68,6.07,0h0
		c0.84,0.84,1.26,1.94,1.26,3.03c0,1.49-0.91,2.6-1.26,3.03c-1.85,2.27-18.29,18.71-40.86,40.87"/>
	<path class="st14" d="M-488.47-326.3c-0.86,0.85-1.73,1.7-2.59,2.55c-0.25,0.26-1.18,1.28-1.25,2.86
		c-0.07,1.64,0.84,2.78,1.25,3.21c0.98,1.05,2.17,1.32,2.59,1.4C-488.48-319.62-488.47-322.96-488.47-326.3z"/>
	<path class="st13" d="M-443.8-336.79c-6.72,6.74-13.43,13.49-20.15,20.23c2.03-0.31,8.11-1.51,13.37-6.77
		C-445.28-328.62-444.1-334.76-443.8-336.79z"/>
	<path class="st13" d="M-443.55-338.44"/>
	<line class="st13" x1="-443.82" y1="-336.72" x2="-443.8" y2="-336.79"/>
</g>
<g>
	<path class="st17" d="M-361.79-657.08h-20.91c-13.27,0-24.03,10.76-24.03,24.03v41.82c0,13.27,10.76,24.03,24.03,24.03h20.91
		V-657.08z"/>
	<path class="st18" d="M-361.79-657.08h20.91c13.27,0,24.03,10.76,24.03,24.03v41.82c0,6.64-2.69,12.64-7.04,16.99
		c-0.89,0.89-5.7,5.54-13.26,6.75c-1.51,0.24-2.8,0.29-3.73,0.29c-6.97,0-13.94,0-20.91,0V-657.08z"/>
	<path class="st18" d="M-345.89-655.54c1.59,1.59,1.55,4.21-0.09,5.85c-5.27,5.27-10.54,10.54-15.81,15.81
		c-1.56,1.56-3.12,3.12-4.69,4.69c-11.06,11.06-22.13,22.13-33.19,33.19c-2.64,2.64-7.04,0.89-7.02-2.78l0-0.12
		c0.01-1.09,0.45-2.15,1.23-2.95c12.65-12.93,25.43-25.88,38.35-38.85c1.77-1.78,3.55-3.56,5.32-5.33c3.25-3.25,6.5-6.5,9.74-9.74
		c1.64-1.64,4.26-1.67,5.85-0.09C-346.1-655.75-345.99-655.65-345.89-655.54z"/>
	<path class="st18" d="M-326.18-640.08c1.51,1.51,1.51,3.96,0,5.47c-13.98,13.98-27.96,27.96-41.94,41.94
		c-7.29,7.29-14.57,14.57-21.86,21.86c-1.28,1.28-3.29,1.52-4.81,0.53c-0.28-0.19-0.57-0.38-0.87-0.59
		c-0.01-0.01-0.03-0.02-0.04-0.03c-1.94-1.37-2.14-4.18-0.46-5.86l26.81-26.81l37.1-37.1c1.51-1.51,3.96-1.51,5.47,0L-326.18-640.08
		z"/>
	<path class="st17" d="M-318.34-608.54l-39.96,39.96c-1.68,1.68-4.39,1.68-6.07,0l0,0c-1.68-1.68-1.68-4.39,0-6.07l39.96-39.96
		c1.68-1.68,4.39-1.68,6.07,0v0C-316.67-612.93-316.67-610.21-318.34-608.54z"/>
	<path class="st18" d="M-381.55-649.79l-18.07,18.07c-1.59,1.59-4.16,1.59-5.75,0v0c-1.59-1.59-1.59-4.16,0-5.75l18.07-18.07
		c1.59-1.59,4.16-1.59,5.75,0l0,0C-379.96-653.95-379.96-651.38-381.55-649.79z"/>
	<path class="st17" d="M-346.05-649.63c-5.25,5.25-10.5,10.5-15.74,15.74c0-4.05,0-8.1,0-12.15c3.22-3.22,6.45-6.45,9.67-9.67
		c1.59-1.59,4.16-1.59,5.75,0l0.33,0.33C-344.46-653.79-344.46-651.22-346.05-649.63z"/>
	<path class="st17" d="M-361.79-611.04c11.6-11.6,23.19-23.19,34.79-34.79c1.68-1.68,4.39-1.68,6.07,0h0
		c0.84,0.84,1.26,1.94,1.26,3.03c0,1.49-0.91,2.6-1.26,3.03c-1.85,2.27-18.29,18.71-40.86,40.87"/>
	<path class="st18" d="M-361.78-577.22c-0.86,0.85-1.73,1.7-2.59,2.55c-0.25,0.26-1.18,1.28-1.25,2.86
		c-0.07,1.64,0.84,2.78,1.25,3.21c0.98,1.05,2.17,1.32,2.59,1.4C-361.79-570.54-361.78-573.88-361.78-577.22z"/>
	<path class="st17" d="M-317.11-587.71c-6.72,6.74-13.43,13.49-20.15,20.23c2.03-0.31,8.11-1.51,13.37-6.77
		C-318.59-579.54-317.41-585.68-317.11-587.71z"/>
	<path class="st13" d="M-316.86-589.36"/>
	<line class="st13" x1="-317.12" y1="-587.64" x2="-317.11" y2="-587.71"/>
</g>
<g>
	<path class="st13" d="M-246.31-657.08h-20.91c-13.27,0-24.03,10.76-24.03,24.03v41.82c0,13.27,10.76,24.03,24.03,24.03h20.91
		V-657.08z"/>
	<path class="st14" d="M-246.31-657.08h20.91c13.27,0,24.03,10.76,24.03,24.03v41.82c0,6.64-2.69,12.64-7.04,16.99
		c-0.89,0.89-5.7,5.54-13.26,6.75c-1.51,0.24-2.8,0.29-3.73,0.29c-6.97,0-13.94,0-20.91,0V-657.08z"/>
	<path class="st14" d="M-230.41-655.54c1.59,1.59,1.55,4.21-0.09,5.85c-5.27,5.27-10.54,10.54-15.81,15.81
		c-1.56,1.56-3.12,3.12-4.69,4.69c-11.06,11.06-22.13,22.13-33.19,33.19c-2.64,2.64-7.04,0.89-7.02-2.78l0-0.12
		c0.01-1.09,0.45-2.15,1.23-2.95c12.65-12.93,25.43-25.88,38.35-38.85c1.77-1.78,3.55-3.56,5.32-5.33c3.25-3.25,6.5-6.5,9.74-9.74
		c1.64-1.64,4.26-1.67,5.85-0.09C-230.62-655.75-230.51-655.65-230.41-655.54z"/>
	<path class="st14" d="M-210.7-640.08c1.51,1.51,1.51,3.96,0,5.47c-13.98,13.98-27.96,27.96-41.94,41.94
		c-7.29,7.29-14.57,14.57-21.86,21.86c-1.28,1.28-3.29,1.52-4.81,0.53c-0.28-0.19-0.57-0.38-0.87-0.59
		c-0.01-0.01-0.03-0.02-0.04-0.03c-1.94-1.37-2.14-4.18-0.46-5.86l26.81-26.81l37.1-37.1c1.51-1.51,3.96-1.51,5.47,0L-210.7-640.08z
		"/>
	<path class="st13" d="M-202.86-608.54l-39.96,39.96c-1.68,1.68-4.39,1.68-6.07,0l0,0c-1.68-1.68-1.68-4.39,0-6.07l39.96-39.96
		c1.68-1.68,4.39-1.68,6.07,0l0,0C-201.19-612.93-201.19-610.21-202.86-608.54z"/>
	<path class="st14" d="M-266.07-649.79l-18.07,18.07c-1.59,1.59-4.16,1.59-5.75,0v0c-1.59-1.59-1.59-4.16,0-5.75l18.07-18.07
		c1.59-1.59,4.16-1.59,5.75,0l0,0C-264.48-653.95-264.48-651.38-266.07-649.79z"/>
	<path class="st13" d="M-230.56-649.63c-5.25,5.25-10.5,10.5-15.74,15.74c0-4.05,0-8.1,0-12.15c3.22-3.22,6.45-6.45,9.67-9.67
		c1.59-1.59,4.16-1.59,5.75,0l0.33,0.33C-228.98-653.79-228.98-651.22-230.56-649.63z"/>
	<path class="st13" d="M-246.31-611.04c11.6-11.6,23.19-23.19,34.79-34.79c1.68-1.68,4.39-1.68,6.07,0h0
		c0.84,0.84,1.26,1.94,1.26,3.03c0,1.49-0.91,2.6-1.26,3.03c-1.85,2.27-18.29,18.71-40.86,40.87"/>
	<path class="st14" d="M-246.3-577.22c-0.86,0.85-1.73,1.7-2.59,2.55c-0.25,0.26-1.18,1.28-1.25,2.86
		c-0.07,1.64,0.84,2.78,1.25,3.21c0.98,1.05,2.17,1.32,2.59,1.4C-246.3-570.54-246.3-573.88-246.3-577.22z"/>
	<path class="st13" d="M-201.63-587.71c-6.72,6.74-13.43,13.49-20.15,20.23c2.03-0.31,8.11-1.51,13.37-6.77
		C-203.11-579.54-201.93-585.68-201.63-587.71z"/>
	<path class="st13" d="M-201.38-589.36"/>
	<line class="st13" x1="-201.64" y1="-587.64" x2="-201.63" y2="-587.71"/>
</g>
<g>
	<path class="st13" d="M-132.37-949.61h-20.91c-13.27,0-24.03,10.76-24.03,24.03v41.82c0,13.27,10.76,24.03,24.03,24.03h20.91
		V-949.61z"/>
	<path class="st14" d="M-132.37-949.61h20.91c13.27,0,24.03,10.76,24.03,24.03v41.82c0,6.64-2.69,12.64-7.04,16.99
		c-0.89,0.89-5.7,5.54-13.26,6.75c-1.51,0.24-2.8,0.29-3.73,0.29c-6.97,0-13.94,0-20.91,0V-949.61z"/>
	<path class="st14" d="M-116.47-948.08c1.59,1.59,1.55,4.21-0.09,5.85c-5.27,5.27-10.54,10.54-15.81,15.81
		c-1.56,1.56-3.12,3.12-4.69,4.69c-11.06,11.06-22.13,22.13-33.19,33.19c-2.64,2.64-7.04,0.89-7.02-2.78l0-0.12
		c0.01-1.09,0.45-2.15,1.23-2.95c12.65-12.93,25.43-25.88,38.35-38.85c1.77-1.78,3.55-3.56,5.32-5.33c3.25-3.25,6.5-6.5,9.74-9.73
		c1.64-1.64,4.26-1.67,5.85-0.09C-116.68-948.29-116.58-948.18-116.47-948.08z"/>
	<path class="st14" d="M-96.76-932.62c1.51,1.51,1.51,3.96,0,5.47c-13.98,13.98-27.96,27.96-41.94,41.94
		c-7.29,7.29-14.57,14.57-21.86,21.86c-1.28,1.28-3.29,1.52-4.81,0.53c-0.28-0.19-0.57-0.38-0.87-0.59
		c-0.01-0.01-0.03-0.02-0.04-0.03c-1.94-1.37-2.14-4.18-0.46-5.86l26.81-26.81l37.1-37.1c1.51-1.51,3.96-1.51,5.47,0L-96.76-932.62z
		"/>
	<path class="st13" d="M-88.93-901.07l-39.96,39.96c-1.68,1.68-4.39,1.68-6.07,0l0,0c-1.68-1.68-1.68-4.39,0-6.07l39.96-39.96
		c1.68-1.68,4.39-1.68,6.07,0h0C-87.25-905.46-87.25-902.75-88.93-901.07z"/>
	<path class="st14" d="M-152.13-942.33l-18.07,18.07c-1.59,1.59-4.16,1.59-5.75,0l0,0c-1.59-1.59-1.59-4.16,0-5.75l18.07-18.07
		c1.59-1.59,4.16-1.59,5.75,0l0,0C-150.54-946.49-150.54-943.91-152.13-942.33z"/>
	<path class="st13" d="M-116.63-942.16c-5.25,5.25-10.5,10.5-15.74,15.74c0-4.05,0-8.1,0-12.15c3.22-3.22,6.45-6.45,9.67-9.67
		c1.59-1.59,4.16-1.59,5.75,0l0.33,0.33C-115.04-946.32-115.04-943.75-116.63-942.16z"/>
	<path class="st13" d="M-132.37-903.57c11.6-11.6,23.19-23.19,34.79-34.79c1.68-1.68,4.39-1.68,6.07,0h0
		c0.84,0.84,1.26,1.94,1.26,3.03c0,1.49-0.91,2.6-1.26,3.03c-1.85,2.27-18.29,18.71-40.86,40.87"/>
	<path class="st14" d="M-132.36-869.75c-0.86,0.85-1.73,1.7-2.59,2.55c-0.25,0.26-1.18,1.28-1.25,2.86
		c-0.07,1.64,0.84,2.78,1.25,3.21c0.98,1.05,2.17,1.32,2.59,1.4C-132.37-863.08-132.37-866.42-132.36-869.75z"/>
	<path class="st13" d="M-87.69-880.24c-6.72,6.74-13.43,13.49-20.15,20.23c2.03-0.31,8.11-1.51,13.37-6.77
		C-89.17-872.08-87.99-878.22-87.69-880.24z"/>
	<path class="st13" d="M-87.44-881.9"/>
	<line class="st13" x1="-87.71" y1="-880.17" x2="-87.69" y2="-880.24"/>
</g>
<g>
	<path class="st13" d="M-16.31-949.61h-20.91c-13.27,0-24.03,10.76-24.03,24.03v41.82c0,13.27,10.76,24.03,24.03,24.03h20.91
		V-949.61z"/>
	<path class="st14" d="M-16.31-949.61H4.6c13.27,0,24.03,10.76,24.03,24.03v41.82c0,6.64-2.69,12.64-7.04,16.99
		c-0.89,0.89-5.7,5.54-13.26,6.75c-1.51,0.24-2.8,0.29-3.73,0.29c-6.97,0-13.94,0-20.91,0V-949.61z"/>
	<path class="st14" d="M-0.41-948.08c1.59,1.59,1.55,4.21-0.09,5.85c-5.27,5.27-10.54,10.54-15.81,15.81
		c-1.56,1.56-3.12,3.12-4.69,4.69c-11.06,11.06-22.13,22.13-33.19,33.19c-2.64,2.64-7.04,0.89-7.02-2.78l0-0.12
		c0.01-1.09,0.45-2.15,1.23-2.95c12.65-12.93,25.43-25.88,38.35-38.85c1.77-1.78,3.55-3.56,5.32-5.33c3.25-3.25,6.5-6.5,9.74-9.73
		c1.64-1.64,4.26-1.67,5.85-0.09C-0.62-948.29-0.51-948.18-0.41-948.08z"/>
	<path class="st14" d="M19.3-932.62c1.51,1.51,1.51,3.96,0,5.47C5.32-913.16-8.66-899.18-22.64-885.2
		c-7.29,7.29-14.57,14.57-21.86,21.86c-1.28,1.28-3.29,1.52-4.81,0.53c-0.28-0.19-0.57-0.38-0.87-0.59
		c-0.01-0.01-0.03-0.02-0.04-0.03c-1.94-1.37-2.14-4.18-0.46-5.86l26.81-26.81l37.1-37.1c1.51-1.51,3.96-1.51,5.47,0L19.3-932.62z"
		/>
	<path class="st13" d="M27.14-901.07l-39.96,39.96c-1.68,1.68-4.39,1.68-6.07,0h0c-1.68-1.68-1.68-4.39,0-6.07l39.96-39.96
		c1.68-1.68,4.39-1.68,6.07,0h0C28.81-905.46,28.81-902.75,27.14-901.07z"/>
	<path class="st14" d="M-36.07-942.33l-18.07,18.07c-1.59,1.59-4.16,1.59-5.75,0h0c-1.59-1.59-1.59-4.16,0-5.75l18.07-18.07
		c1.59-1.59,4.16-1.59,5.75,0h0C-34.48-946.49-34.48-943.91-36.07-942.33z"/>
	<path class="st13" d="M-0.56-942.16c-5.25,5.25-10.5,10.5-15.74,15.74c0-4.05,0-8.1,0-12.15c3.22-3.22,6.45-6.45,9.67-9.67
		c1.59-1.59,4.16-1.59,5.75,0l0.33,0.33C1.02-946.32,1.02-943.75-0.56-942.16z"/>
	<path class="st13" d="M-16.31-903.57c11.6-11.6,23.19-23.19,34.79-34.79c1.68-1.68,4.39-1.68,6.07,0h0
		c0.84,0.84,1.26,1.94,1.26,3.03c0,1.49-0.91,2.6-1.26,3.03c-1.85,2.27-18.29,18.71-40.86,40.87"/>
	<path class="st14" d="M-16.3-869.75c-0.86,0.85-1.73,1.7-2.59,2.55c-0.25,0.26-1.18,1.28-1.25,2.86c-0.07,1.64,0.84,2.78,1.25,3.21
		c0.98,1.05,2.17,1.32,2.59,1.4C-16.31-863.08-16.3-866.42-16.3-869.75z"/>
	<path class="st13" d="M28.37-880.24c-6.72,6.74-13.43,13.49-20.15,20.23c2.03-0.31,8.11-1.51,13.37-6.77
		C26.89-872.08,28.07-878.22,28.37-880.24z"/>
	<path class="st13" d="M28.62-881.9"/>
	<line class="st13" x1="28.36" y1="-880.17" x2="28.37" y2="-880.24"/>
</g>
<g>
	<g>
		<path class="st7" d="M-361.79-543.33h-20.91c-13.27,0-24.03,10.76-24.03,24.03v41.82c0,13.27,10.76,24.03,24.03,24.03h20.91
			V-543.33z"/>
		<path class="st8" d="M-361.79-543.33h20.91c13.27,0,24.03,10.76,24.03,24.03v41.82c0,13.27-10.76,24.03-24.03,24.03h-20.91
			V-543.33z"/>
	</g>
	<circle class="st8" cx="-388.05" cy="-529.75" r="5.06"/>
	<circle class="st8" cx="-371.25" cy="-529.75" r="5.06"/>
	<circle class="st7" cx="-354.03" cy="-529.75" r="5.06"/>
	<circle class="st7" cx="-337.88" cy="-529.75" r="5.06"/>
	<circle class="st8" cx="-396.45" cy="-515.12" r="5.06"/>
	<circle class="st8" cx="-379.65" cy="-515.12" r="5.06"/>
	<circle class="st7" cx="-345.96" cy="-514.89" r="5.06"/>
	<circle class="st7" cx="-329.81" cy="-514.89" r="5.06"/>
	<circle class="st8" cx="-388.46" cy="-501.65" r="5.06"/>
	<circle class="st8" cx="-371.66" cy="-501.65" r="5.06"/>
	<circle class="st8" cx="-388.46" cy="-470.83" r="5.06"/>
	<circle class="st8" cx="-371.66" cy="-470.83" r="5.06"/>
	<circle class="st8" cx="-396.85" cy="-486.24" r="5.06"/>
	<circle class="st8" cx="-380.06" cy="-486.24" r="5.06"/>
	<circle class="st7" cx="-335.85" cy="-501.65" r="5.06"/>
	<circle class="st7" cx="-352.64" cy="-501.65" r="5.06"/>
	<circle class="st7" cx="-335.85" cy="-470.83" r="5.06"/>
	<circle class="st7" cx="-352.64" cy="-470.83" r="5.06"/>
	<circle class="st7" cx="-327.45" cy="-486.24" r="5.06"/>
	<circle class="st7" cx="-344.25" cy="-486.24" r="5.06"/>
	<g>
		<path class="st7" d="M-361.8-491.3c2.8,0,5.06,2.27,5.06,5.06c0,2.8-2.27,5.06-5.06,5.06"/>
		<path class="st8" d="M-361.78-491.3c-2.8,0-5.06,2.27-5.06,5.06c0,2.8,2.27,5.06,5.06,5.06"/>
	</g>
	<g>
		<path class="st7" d="M-361.8-520.18c2.8,0,5.06,2.27,5.06,5.06s-2.27,5.06-5.06,5.06"/>
		<path class="st8" d="M-361.78-520.18c-2.8,0-5.06,2.27-5.06,5.06s2.27,5.06,5.06,5.06"/>
	</g>
</g>
<path class="st17" d="M-246.65-536.12h-20.91c-13.27,0-24.03,10.76-24.03,24.03v41.82c0,13.27,10.76,24.03,24.03,24.03h20.91
	V-536.12z"/>
<path class="st18" d="M-246.65-536.12h20.91c13.27,0,24.03,10.76,24.03,24.03v41.82c0,13.27-10.76,24.03-24.03,24.03h-20.91V-536.12
	z"/>
<g>
	<path class="st17" d="M-246.79-457.46c18.05,0,32.69-14.64,32.69-32.69s-14.64-32.69-32.69-32.69V-457.46z"/>
	<path class="st18" d="M-246.64-457.46c-18.05,0-32.69-14.64-32.69-32.69s14.64-32.69,32.69-32.69V-457.46z"/>
</g>
<path class="st17" d="M-136.4-826.74h-20.91c-13.27,0-24.03,10.76-24.03,24.03v41.82c0,13.27,10.76,24.03,24.03,24.03h20.91V-826.74
	z"/>
<path class="st18" d="M-136.4-826.74h20.91c13.27,0,24.03,10.76,24.03,24.03v41.82c0,13.27-10.76,24.03-24.03,24.03h-20.91V-826.74z
	"/>
<g>
	<path class="st17" d="M-103.71-780.69c0-18.05-14.64-32.69-32.69-32.69s-32.69,14.64-32.69,32.69H-103.71z"/>
	<path class="st18" d="M-103.71-780.84c0,18.05-14.64,32.69-32.69,32.69s-32.69-14.64-32.69-32.69H-103.71z"/>
</g>
<path class="st25" d="M-875.49-247.79c-14.85,0-27.8-5.52-34.66-13.7c-2.86-3.41-7.5-3.36-10.33,0.08
	c-6.69,8.14-19.26,13.61-33.66,13.61c-9.42,0-18.05-2.34-24.76-6.24c-5.06-2.94-10.89,1.65-10.35,8.22
	c6.32,77.8,37.57,136.9,75.18,136.9c37.69,0,69-59.36,75.23-137.41c0.53-6.59-5.35-11.17-10.4-8.17
	C-856.25-250.32-865.43-247.79-875.49-247.79z"/>
<g>
	<path class="st25" d="M-1180.45-302.85c-6.69,8.14-19.26,13.61-33.66,13.61c-9.42,0-18.05-2.34-24.76-6.24
		c-5.06-2.94-10.89,1.65-10.35,8.22c6.32,77.81,37.59,136.92,75.2,136.9c0,0,0,0,0,0v-154.97
		C-1176.3-305.79-1178.71-304.96-1180.45-302.85z"/>
	<path class="st26" d="M-1109.18-295.48c-6.72,3.9-15.35,6.24-24.76,6.24c-14.4,0-26.97-5.48-33.66-13.61
		c-1.74-2.11-4.15-2.94-6.42-2.48v154.97c0,0,0,0,0,0c37.62,0.02,68.88-59.08,75.2-136.9
		C-1098.29-293.83-1104.12-298.41-1109.18-295.48z"/>
</g>
<g>
	<path class="st27" d="M-565.33-184.58c-4.86,5.91-13.98,9.88-24.43,9.88c-6.84,0-13.1-1.7-17.97-4.53c-3.67-2.13-7.9,1.2-7.52,5.97
		c4.59,56.47,27.27,99.37,54.57,99.37c0.01,0,0.01,0,0.02,0v-112.49C-562.31-186.71-564.07-186.11-565.33-184.58z"/>
	<path class="st28" d="M-513.6-179.22c-4.87,2.83-11.14,4.53-17.97,4.53c-10.45,0-19.58-3.98-24.43-9.88
		c-1.26-1.53-3.02-2.14-4.66-1.8v112.49c0.01,0,0.01,0,0.02,0c27.3,0,49.98-42.9,54.57-99.37
		C-505.69-178.03-509.93-181.35-513.6-179.22z"/>
</g>
<radialGradient id="SVGID_3_" cx="-22.7345" cy="-504.3466" r="132.0103" gradientUnits="userSpaceOnUse">
	<stop  offset="0.1613" style="stop-color:#A9D1DE"/>
	<stop  offset="0.3171" style="stop-color:#A9CEDC"/>
	<stop  offset="0.4468" style="stop-color:#AAC5D6"/>
	<stop  offset="0.5672" style="stop-color:#ACB7CD"/>
	<stop  offset="0.6818" style="stop-color:#AEA4C1"/>
	<stop  offset="0.7925" style="stop-color:#AF8FB2"/>
	<stop  offset="0.8986" style="stop-color:#AF78A3"/>
	<stop  offset="1" style="stop-color:#AE6396"/>
</radialGradient>
<circle class="st29" cx="-22.73" cy="-504.35" r="132.01"/>
<g>
	<path class="st30" d="M162.92-269.7c-4.86,5.91-13.98,9.88-24.43,9.88c-6.84,0-13.1-1.7-17.97-4.53c-3.67-2.13-7.9,1.2-7.52,5.97
		c4.59,56.47,27.27,99.37,54.57,99.37c0.01,0,0.01,0,0.02,0V-271.5C165.94-271.83,164.18-271.23,162.92-269.7z"/>
	<path class="st31" d="M214.65-264.35c-4.87,2.83-11.14,4.53-17.97,4.53c-10.45,0-19.58-3.98-24.43-9.88
		c-1.26-1.53-3.02-2.14-4.66-1.8v112.49c0.01,0,0.01,0,0.02,0c27.3,0,49.98-42.9,54.57-99.37
		C222.56-263.15,218.33-266.48,214.65-264.35z"/>
</g>
<radialGradient id="SVGID_4_" cx="-496.3196" cy="-174.7599" r="44.5809" gradientUnits="userSpaceOnUse">
	<stop  offset="0.1613" style="stop-color:#A9D1DE"/>
	<stop  offset="0.3171" style="stop-color:#A9CEDC"/>
	<stop  offset="0.4468" style="stop-color:#AAC5D6"/>
	<stop  offset="0.5672" style="stop-color:#ACB7CD"/>
	<stop  offset="0.6818" style="stop-color:#AEA4C1"/>
	<stop  offset="0.7925" style="stop-color:#AF8FB2"/>
	<stop  offset="0.8986" style="stop-color:#AF78A3"/>
	<stop  offset="1" style="stop-color:#AE6396"/>
</radialGradient>
<rect x="-540.9" y="-219.34" class="st32" width="89.16" height="89.16"/>
<linearGradient id="SVGID_5_" gradientUnits="userSpaceOnUse" x1="-1155.3937" y1="425.4836" x2="-1155.3937" y2="322.2785">
	<stop  offset="1.118836e-07" style="stop-color:#4859A5"/>
	<stop  offset="0.5041" style="stop-color:#217DC2"/>
	<stop  offset="0.8457" style="stop-color:#00A4E3"/>
	<stop  offset="1" style="stop-color:#00B7F4"/>
</linearGradient>
<path class="st33" d="M-884.51,425.48h-541.78c-12.06,0-21.84-9.78-21.84-21.84v-59.53c0-12.06,9.78-21.84,21.84-21.84h541.78
	c12.06,0,21.84,9.78,21.84,21.84v59.53C-862.67,415.71-872.45,425.48-884.51,425.48z"/>
<radialGradient id="SVGID_6_" cx="93.0904" cy="-736.8696" r="51.6025" gradientUnits="userSpaceOnUse">
	<stop  offset="0.1613" style="stop-color:#A9D1DE"/>
	<stop  offset="0.3171" style="stop-color:#A9CEDC"/>
	<stop  offset="0.4468" style="stop-color:#AAC5D6"/>
	<stop  offset="0.5672" style="stop-color:#ACB7CD"/>
	<stop  offset="0.6818" style="stop-color:#AEA4C1"/>
	<stop  offset="0.7925" style="stop-color:#AF8FB2"/>
	<stop  offset="0.8986" style="stop-color:#AF78A3"/>
	<stop  offset="1" style="stop-color:#AE6396"/>
</radialGradient>
<path class="st34" d="M122.86-685.27H63.32c-12.06,0-21.84-9.78-21.84-21.84v-59.53c0-12.06,9.78-21.84,21.84-21.84h59.53
	c12.06,0,21.84,9.78,21.84,21.84v59.53C144.69-695.04,134.92-685.27,122.86-685.27z"/>
<linearGradient id="SVGID_7_" gradientUnits="userSpaceOnUse" x1="-1396.5151" y1="862.5859" x2="-1396.5151" y2="759.3809">
	<stop  offset="1.118836e-07" style="stop-color:#4859A5"/>
	<stop  offset="0.5041" style="stop-color:#217DC2"/>
	<stop  offset="0.8457" style="stop-color:#00A4E3"/>
	<stop  offset="1" style="stop-color:#00B7F4"/>
</linearGradient>
<path class="st35" d="M-1366.75,862.59h-59.53c-12.06,0-21.84-9.78-21.84-21.84v-59.53c0-12.06,9.78-21.84,21.84-21.84h59.53
	c12.06,0,21.84,9.78,21.84,21.84v59.53C-1344.91,852.81-1354.69,862.59-1366.75,862.59z"/>
<linearGradient id="SVGID_8_" gradientUnits="userSpaceOnUse" x1="-1245.9651" y1="544.4805" x2="-1245.9651" y2="441.2754">
	<stop  offset="1.118836e-07" style="stop-color:#4859A5"/>
	<stop  offset="0.5041" style="stop-color:#217DC2"/>
	<stop  offset="0.8457" style="stop-color:#00A4E3"/>
	<stop  offset="1" style="stop-color:#00B7F4"/>
</linearGradient>
<path class="st36" d="M-1068.33,544.48h-355.26c-12.06,0-21.84-9.78-21.84-21.84v-59.53c0-12.06,9.78-21.84,21.84-21.84h355.26
	c12.06,0,21.84,9.78,21.84,21.84v59.53C-1046.5,534.7-1056.27,544.48-1068.33,544.48z"/>
<linearGradient id="SVGID_9_" gradientUnits="userSpaceOnUse" x1="-1302.3096" y1="741.5315" x2="-1302.3096" y2="570.7824">
	<stop  offset="1.118836e-07" style="stop-color:#4859A5"/>
	<stop  offset="0.5041" style="stop-color:#217DC2"/>
	<stop  offset="0.8457" style="stop-color:#00A4E3"/>
	<stop  offset="1" style="stop-color:#00B7F4"/>
</linearGradient>
<path class="st37" d="M-1316.91,577.79l-106.84,133.33c-9.81,12.25-1.09,30.41,14.6,30.41h213.68c15.69,0,24.41-18.16,14.6-30.41
	l-106.84-133.33C-1295.2,568.45-1309.42,568.45-1316.91,577.79z"/>
<linearGradient id="SVGID_10_" gradientUnits="userSpaceOnUse" x1="-509.9128" y1="425.4836" x2="-509.9128" y2="322.2785">
	<stop  offset="0" style="stop-color:#FFDD38"/>
	<stop  offset="6.798089e-03" style="stop-color:#FFDA38"/>
	<stop  offset="0.1625" style="stop-color:#FEAA3D"/>
	<stop  offset="0.3177" style="stop-color:#F8873F"/>
	<stop  offset="0.4689" style="stop-color:#F67041"/>
	<stop  offset="0.6151" style="stop-color:#F46041"/>
	<stop  offset="0.7552" style="stop-color:#F35441"/>
	<stop  offset="0.8864" style="stop-color:#F24C42"/>
	<stop  offset="1" style="stop-color:#F24942"/>
</linearGradient>
<path class="st38" d="M-239.02,425.48H-780.8c-12.06,0-21.84-9.78-21.84-21.84v-59.53c0-12.06,9.78-21.84,21.84-21.84h541.78
	c12.06,0,21.84,9.78,21.84,21.84v59.53C-217.19,415.71-226.96,425.48-239.02,425.48z"/>
<linearGradient id="SVGID_11_" gradientUnits="userSpaceOnUse" x1="-751.0342" y1="862.5859" x2="-751.0342" y2="759.3809">
	<stop  offset="0" style="stop-color:#FFDD38"/>
	<stop  offset="6.798089e-03" style="stop-color:#FFDA38"/>
	<stop  offset="0.1625" style="stop-color:#FEAA3D"/>
	<stop  offset="0.3177" style="stop-color:#F8873F"/>
	<stop  offset="0.4689" style="stop-color:#F67041"/>
	<stop  offset="0.6151" style="stop-color:#F46041"/>
	<stop  offset="0.7552" style="stop-color:#F35441"/>
	<stop  offset="0.8864" style="stop-color:#F24C42"/>
	<stop  offset="1" style="stop-color:#F24942"/>
</linearGradient>
<path class="st39" d="M-721.27,862.59h-59.53c-12.06,0-21.84-9.78-21.84-21.84v-59.53c0-12.06,9.78-21.84,21.84-21.84h59.53
	c12.06,0,21.84,9.78,21.84,21.84v59.53C-699.43,852.81-709.21,862.59-721.27,862.59z"/>
<linearGradient id="SVGID_12_" gradientUnits="userSpaceOnUse" x1="-600.4841" y1="544.4805" x2="-600.4841" y2="441.2754">
	<stop  offset="0" style="stop-color:#FFDD38"/>
	<stop  offset="6.798089e-03" style="stop-color:#FFDA38"/>
	<stop  offset="0.1625" style="stop-color:#FEAA3D"/>
	<stop  offset="0.3177" style="stop-color:#F8873F"/>
	<stop  offset="0.4689" style="stop-color:#F67041"/>
	<stop  offset="0.6151" style="stop-color:#F46041"/>
	<stop  offset="0.7552" style="stop-color:#F35441"/>
	<stop  offset="0.8864" style="stop-color:#F24C42"/>
	<stop  offset="1" style="stop-color:#F24942"/>
</linearGradient>
<path class="st40" d="M-422.85,544.48h-355.26c-12.06,0-21.84-9.78-21.84-21.84v-59.53c0-12.06,9.78-21.84,21.84-21.84h355.26
	c12.06,0,21.84,9.78,21.84,21.84v59.53C-401.02,534.7-410.79,544.48-422.85,544.48z"/>
<linearGradient id="SVGID_13_" gradientUnits="userSpaceOnUse" x1="-656.8287" y1="741.5315" x2="-656.8287" y2="570.7824">
	<stop  offset="0" style="stop-color:#FFDD38"/>
	<stop  offset="6.798089e-03" style="stop-color:#FFDA38"/>
	<stop  offset="0.1625" style="stop-color:#FEAA3D"/>
	<stop  offset="0.3177" style="stop-color:#F8873F"/>
	<stop  offset="0.4689" style="stop-color:#F67041"/>
	<stop  offset="0.6151" style="stop-color:#F46041"/>
	<stop  offset="0.7552" style="stop-color:#F35441"/>
	<stop  offset="0.8864" style="stop-color:#F24C42"/>
	<stop  offset="1" style="stop-color:#F24942"/>
</linearGradient>
<path class="st41" d="M-671.43,577.79l-106.84,133.33c-9.81,12.25-1.09,30.41,14.6,30.41h213.68c15.69,0,24.41-18.16,14.6-30.41
	l-106.84-133.33C-649.72,568.45-663.94,568.45-671.43,577.79z"/>
<linearGradient id="SVGID_14_" gradientUnits="userSpaceOnUse" x1="275.0279" y1="-850.3797" x2="975.7867" y2="-149.6208">
	<stop  offset="1.118836e-07" style="stop-color:#4859A5"/>
	<stop  offset="0.2151" style="stop-color:#F56B40"/>
	<stop  offset="0.4907" style="stop-color:#42B978"/>
	<stop  offset="0.6738" style="stop-color:#00B8A1"/>
	<stop  offset="0.8977" style="stop-color:#00B6DA"/>
	<stop  offset="1" style="stop-color:#00B7F4"/>
</linearGradient>
<rect x="358.45" y="-933.8" class="st42" width="533.92" height="867.6"/>
<linearGradient id="SVGID_15_" gradientUnits="userSpaceOnUse" x1="512.3561" y1="83.9195" x2="1213.115" y2="784.6785">
	<stop  offset="1.118836e-07" style="stop-color:#4859A5"/>
	<stop  offset="0.2151" style="stop-color:#F56B40"/>
	<stop  offset="0.4907" style="stop-color:#42B978"/>
	<stop  offset="0.6738" style="stop-color:#00B8A1"/>
	<stop  offset="0.8977" style="stop-color:#00B6DA"/>
	<stop  offset="1" style="stop-color:#00B7F4"/>
</linearGradient>
<rect x="595.78" y="0.5" class="st43" width="533.92" height="867.6"/>
</svg>
